<?xml version="1.0" encoding="utf-8"?>
<!-- Generator: Adobe Illustrator 15.1.0, SVG Export Plug-In . SVG Version: 6.00 Build 0)  -->
<svg version="1.2" baseProfile="tiny" xmlns="http://www.w3.org/2000/svg" xmlns:xlink="http://www.w3.org/1999/xlink" x="0px"
	 y="0px" width="360.079px" height="265.283px" viewBox="0 0 360.079 265.283" xml:space="preserve">
<g id="Background">
	<rect display="none" fill="#D1D3D4" width="432" height="324"/>
</g>
<g id="Master_Logos">
	<path fill="#626062" d="M77.235,199.497c-9.053,10.284-18.682,15.074-30.297,15.074c-20.691,0-37.527-17.45-37.527-38.902v-0.346
		c0-21.623,16.406-38.559,37.354-38.559c11.453,0,20.988,4.481,30.012,14.109l1.914,2.045l6.703-6.255l-1.941-2.054
		c-7.887-8.364-18.396-16.914-36.514-16.914c-12.75,0-24.633,5.034-33.459,14.175C4.787,150.872,0,162.813,0,175.494v0.348
		c0,26.355,20.979,47.797,46.765,47.797c14.725,0,26.926-5.901,37.299-18.049l1.742-2.044l-6.66-6.223L77.235,199.497z"/>
	<path fill="#626062" d="M111.989,146.224v-16.459h-9.242v91.807h9.242v-47.457c0-15.595,12.109-37.35,31.838-37.35h3.67v-9.043
		l-3.141-0.026C129.655,127.695,118.583,135.864,111.989,146.224"/>
	<path fill="#626062" d="M227.339,129.766v51.247c0,21.327-10.977,33.559-30.115,33.559c-19.137,0-30.115-12.231-30.115-33.559
		v-51.247h-9.238v51.591c0,26.082,14.947,42.282,39.01,42.282h0.691c24.059,0,39.004-16.2,39.004-42.282v-51.591H227.339z"/>
	<polygon fill="#43B1C8" points="298.099,0.107 298.099,61.688 360.001,61.688 360.001,70.651 289.138,70.651 289.138,0 	"/>
	<polygon fill="#007398" points="269.101,61.688 269.101,18.354 278.069,18.379 278.069,70.651 225.06,70.651 225.06,61.688 	"/>
	<polygon fill="#DD7D1B" points="341.718,81.686 341.718,90.653 298.099,90.653 298.099,177.535 289.138,177.535 289.138,81.686
		"/>
	<polygon fill="#F9B625" points="278.071,81.686 278.071,127.791 278.069,152.891 269.101,152.891 269.101,90.651 207.05,90.651
		207.05,81.686 	"/>
	<g>
		<path fill="#626062" d="M314.02,170.768v6.776h-0.768v-6.776h-2.639v-0.72h6.045v0.72H314.02z"/>
		<path fill="#626062" d="M324.146,170.995l-2.458,6.501h-0.84l-2.482-6.513l-0.133,6.561h-0.755l0.251-7.496h1.032l2.53,6.621
			l2.494-6.621h1.02l0.24,7.496h-0.779L324.146,170.995z"/>
	</g>
	<g>
		<path fill-rule="evenodd" fill="#D31145" d="M112.665,245.897l-3.07,2.711c-1.077-1.5-2.174-2.251-3.289-2.252
			c-0.543,0-0.988,0.148-1.334,0.445c-0.347,0.286-0.519,0.612-0.519,0.978c0,0.366,0.122,0.712,0.37,1.038
			c0.337,0.435,1.35,1.367,3.038,2.801c1.58,1.324,2.539,2.159,2.875,2.504c0.84,0.851,1.434,1.666,1.778,2.446
			c0.356,0.771,0.534,1.615,0.534,2.534c0,1.789-0.617,3.266-1.853,4.432c-1.234,1.166-2.846,1.748-4.832,1.748
			c-1.552,0-2.905-0.38-4.06-1.141c-1.147-0.76-2.13-1.956-2.949-3.587l3.48-2.104c1.048,1.927,2.254,2.89,3.618,2.89
			c0.71,0,1.309-0.209,1.793-0.623s0.726-0.894,0.726-1.438c0-0.494-0.184-0.987-0.549-1.482c-0.364-0.494-1.171-1.25-2.415-2.268
			c-2.372-1.936-3.902-3.428-4.595-4.477c-0.691-1.057-1.037-2.108-1.037-3.156c0-1.511,0.572-2.806,1.721-3.883
			c1.154-1.086,2.577-1.629,4.267-1.63c1.087,0,2.12,0.252,3.098,0.756C110.45,243.646,111.518,244.563,112.665,245.897z"/>
		<rect x="128.243" y="242.933" fill-rule="evenodd" fill="#D31145" width="4.121" height="21.802"/>
		<polygon fill-rule="evenodd" fill="#D31145" points="148.565,242.933 152.54,242.933 161.89,257.28 161.89,242.933
			166.04,242.933 166.04,264.734 162.054,264.734 152.717,250.433 152.717,264.734 148.565,264.734 		"/>
		<path fill-rule="evenodd" fill="#D31145" d="M202.649,246.49l-2.919,2.89c-1.848-1.956-4.002-2.935-6.462-2.935
			c-2.143,0-3.942,0.712-5.394,2.135c-1.444,1.423-2.164,3.151-2.164,5.187c0,2.104,0.752,3.889,2.252,5.351
			c1.502,1.464,3.354,2.194,5.559,2.194c1.434,0,2.638-0.303,3.614-0.904c0.988-0.604,1.784-1.546,2.389-2.832h-6.314v-3.897h10.968
			l0.029,0.919c0,1.907-0.494,3.715-1.482,5.425s-2.267,3.014-3.838,3.913c-1.571,0.898-3.415,1.348-5.528,1.348
			c-2.263,0-4.284-0.488-6.063-1.467c-1.767-0.988-3.173-2.391-4.207-4.209c-1.03-1.818-1.542-3.779-1.542-5.883
			c0-2.887,0.951-5.395,2.859-7.53c2.263-2.539,5.204-3.808,8.833-3.809c1.896,0,3.671,0.351,5.32,1.052
			C199.954,244.029,201.316,245.048,202.649,246.49z"/>
		<path fill-rule="evenodd" fill="#D31145" d="M226.176,242.933h4.208l8.389,21.802h-4.313l-1.704-4.491h-8.892l-1.78,4.491h-4.313
			L226.176,242.933z M228.309,248.713l-2.905,7.484h5.797L228.309,248.713z"/>
		<path fill-rule="evenodd" fill="#D31145" d="M253.493,242.933h4.4c2.382,0,4.097,0.223,5.142,0.667
			c1.06,0.435,1.89,1.146,2.491,2.135c0.613,0.978,0.919,2.153,0.919,3.526c0,1.522-0.398,2.787-1.199,3.795
			c-0.79,1.008-1.867,1.709-3.23,2.104c-0.801,0.228-2.259,0.341-4.375,0.341v9.233h-4.147V242.933z M257.641,251.454h1.321
			c1.037,0,1.758-0.074,2.163-0.221c0.404-0.148,0.721-0.391,0.949-0.727c0.237-0.346,0.354-0.761,0.354-1.246
			c0-0.838-0.326-1.451-0.978-1.837c-0.474-0.286-1.353-0.43-2.64-0.431h-1.171V251.454z"/>
		<path fill-rule="evenodd" fill="#D31145" d="M292.326,242.385c3.083,0,5.73,1.116,7.944,3.35c2.224,2.233,3.334,4.955,3.334,8.165
			c0,3.184-1.096,5.875-3.289,8.078c-2.184,2.203-4.837,3.305-7.961,3.305c-3.269,0-5.986-1.13-8.149-3.394
			c-2.164-2.263-3.246-4.95-3.246-8.062c0-2.086,0.504-4.002,1.512-5.751s2.391-3.132,4.149-4.15
			C288.389,242.898,290.29,242.386,292.326,242.385z M292.283,246.445c-2.017,0-3.711,0.701-5.084,2.104
			c-1.373,1.404-2.061,3.188-2.061,5.35c0,2.412,0.864,4.318,2.593,5.722c1.343,1.097,2.885,1.646,4.623,1.646
			c1.969,0,3.642-0.712,5.026-2.135c1.382-1.422,2.073-3.176,2.073-5.262c0-2.074-0.695-3.828-2.088-5.262
			C295.974,247.167,294.277,246.446,292.283,246.445z"/>
		<path fill-rule="evenodd" fill="#D31145" d="M319.317,242.933h4.404c2.408,0,4.123,0.219,5.143,0.652
			c1.026,0.426,1.853,1.137,2.476,2.134c0.622,0.999,0.933,2.179,0.933,3.542c0,1.434-0.347,2.635-1.038,3.602
			c-0.681,0.959-1.714,1.686-3.099,2.18l5.159,9.692h-4.536l-4.906-9.233h-0.384v9.233h-4.151V242.933z M323.469,251.454h1.304
			c1.322,0,2.232-0.172,2.728-0.519c0.504-0.345,0.756-0.919,0.756-1.719c0-0.475-0.125-0.884-0.372-1.229
			c-0.247-0.355-0.576-0.608-0.992-0.757c-0.416-0.157-1.175-0.236-2.283-0.237h-1.14V251.454z"/>
		<polygon fill-rule="evenodd" fill="#D31145" points="348.178,242.933 360.08,242.933 360.08,246.993 352.3,246.993 352.3,250.936
			360.08,250.936 360.08,254.923 352.3,254.923 352.3,260.658 360.08,260.658 360.08,264.734 348.178,264.734 		"/>
	</g>
</g>
<g id="Labels">
</g>
</svg>
