<?xml version="1.0" standalone="no"?>
<!DOCTYPE svg PUBLIC "-//W3C//DTD SVG 1.1//EN" "http://www.w3.org/Graphics/SVG/1.1/DTD/svg11.dtd">
<svg width="1600px" height="1200px" version="1.1" xmlns="http://www.w3.org/2000/svg" xmlns:xlink="http://www.w3.org/1999/xlink" xml:space="preserve" style="fill-rule:evenodd;clip-rule:evenodd;stroke-linecap:round;stroke-linejoin:round;stroke-miterlimit:10;">
    <g>
        <g id="Layer1">
            <g>
                <g>
                    <rect x="52.9867" y="96.2572" width="1494.03" height="1007.49" style="fill:white;fill-opacity:0.356863;fill-rule:nonzero;stroke-width:24.23px;stroke:rgb(128,130,133);"/>
                </g>
                <g>
                    <path d="M263.341,237.43L263.341,378.677C263.341,383.281 266.976,386.915 271.579,386.915C276.182,386.915 279.816,383.281 279.816,378.677L279.816,237.43L322.942,237.43C327.303,237.43 330.695,234.038 330.695,229.677C330.695,225.316 327.303,221.924 322.942,221.924L219.974,221.924C215.613,221.924 212.221,225.316 212.221,229.677C212.221,234.038 215.613,237.43 219.974,237.43L263.341,237.43Z" style="fill:rgb(65,64,66);fill-rule:nonzero;"/>
                    <path d="M502.469,308.902L502.469,378.677C502.469,383.038 506.103,386.915 510.706,386.915C515.31,386.915 518.944,383.038 518.944,378.677L518.944,228.223C518.944,223.862 515.31,219.986 510.706,219.986C506.103,219.986 502.469,223.862 502.469,228.223L502.469,293.88L418.157,293.88L418.157,228.223C418.157,223.862 414.522,219.986 409.919,219.986C405.316,219.986 401.682,223.862 401.682,228.223L401.682,378.677C401.682,383.038 405.316,386.915 409.919,386.915C414.522,386.915 418.157,383.038 418.157,378.677L418.157,308.902L502.469,308.902Z" style="fill:rgb(65,64,66);fill-rule:nonzero;"/>
                    <path d="M691.93,384.977C696.049,384.977 699.44,381.585 699.44,377.466C699.44,373.347 696.049,369.955 691.93,369.955L619.731,369.955L619.731,310.355L673.032,310.355C677.151,310.355 680.543,306.963 680.543,302.845C680.543,298.726 677.151,295.334 673.032,295.334L619.731,295.334L619.731,236.945L689.265,236.945C693.383,236.945 696.775,233.553 696.775,229.435C696.775,225.316 693.383,221.924 689.265,221.924L611.494,221.924C606.891,221.924 603.256,225.558 603.256,230.161L603.256,376.739C603.256,381.342 606.891,384.977 611.494,384.977L691.93,384.977Z" style="fill:rgb(65,64,66);fill-rule:nonzero;"/>
                    <path d="M287.811,713.02C310.101,713.02 331.906,702.844 342.566,687.339C343.535,685.885 344.02,684.673 344.02,682.735C344.02,678.374 340.628,674.982 336.267,674.982C334.329,674.982 331.664,675.709 329.968,678.132C320.519,691.699 303.802,697.999 287.811,697.999C250.501,697.999 229.18,678.617 229.18,628.223C229.18,580.737 250.501,558.205 287.811,558.205C305.982,558.205 321.73,567.169 329.968,578.556C331.906,580.979 334.086,581.706 336.267,581.706C340.628,581.706 344.02,578.314 344.02,573.953C344.02,572.257 343.535,570.561 342.324,568.865C330.937,553.117 310.828,543.184 287.811,543.184C240.81,543.184 212.221,570.803 212.221,628.223C212.221,687.823 240.81,713.02 287.811,713.02Z" style="fill:rgb(109,111,113);fill-rule:nonzero;"/>
                    <path d="M505.376,646.394L447.957,646.394L476.545,572.257L505.376,646.394ZM510.464,661.415L527.908,705.994C529.12,709.143 531.785,711.566 535.903,711.566C540.991,711.566 544.383,707.69 544.383,703.329C544.383,702.602 544.141,700.906 543.656,699.695L484.541,550.21C483.329,547.302 480.664,544.637 476.545,544.637C472.184,544.637 470.004,547.302 468.793,550.21L409.677,699.695C409.192,700.664 408.95,702.36 408.95,703.329C408.95,707.69 412.584,711.566 417.187,711.566C421.306,711.566 423.971,708.901 425.183,705.752L442.869,661.415L510.464,661.415Z" style="fill:rgb(109,111,113);fill-rule:nonzero;"/>
                    <path d="M689.749,683.22C692.657,683.22 695.322,681.766 697.018,678.617L747.896,584.371L747.896,703.571C747.896,707.932 751.53,711.566 755.891,711.566C760.252,711.566 763.886,707.932 763.886,703.571L763.886,552.632C763.886,548.271 760.252,544.637 755.891,544.637C751.53,544.637 749.592,547.545 748.623,549.241L689.749,658.992L631.118,549.241C629.907,546.818 627.484,544.637 623.85,544.637C619.489,544.637 615.855,548.271 615.855,552.632L615.855,703.571C615.855,707.932 619.489,711.566 623.85,711.566C628.211,711.566 631.845,707.932 631.845,703.571L631.845,584.371L682.481,678.617C684.177,682.008 687.327,683.22 689.749,683.22Z" style="fill:rgb(109,111,113);fill-rule:nonzero;"/>
                    <path d="M867.096,561.597L904.649,561.597C924.031,561.597 936.63,572.499 936.63,593.82C936.63,614.898 924.274,626.285 904.649,626.285L867.096,626.285L867.096,561.597ZM867.096,641.306L907.072,641.306C933.48,641.306 953.347,625.558 953.347,593.82C953.347,561.597 932.996,546.575 907.072,546.575L858.859,546.575C854.256,546.575 850.621,550.21 850.621,554.813L850.621,703.329C850.621,707.932 854.256,711.566 858.859,711.566C863.462,711.566 867.096,707.932 867.096,703.329L867.096,641.306Z" style="fill:rgb(109,111,113);fill-rule:nonzero;"/>
                    <path d="M1087.33,713.02C1133.12,713.02 1144.02,686.612 1144.02,659.961L1144.02,552.875C1144.02,548.271 1140.38,544.637 1135.78,544.637C1131.18,544.637 1127.54,548.271 1127.54,552.875L1127.54,659.961C1127.54,679.101 1120.52,697.514 1087.33,697.514C1053.89,697.514 1046.87,679.101 1046.87,659.961L1046.87,552.875C1046.87,548.271 1043.23,544.637 1038.63,544.637C1034.03,544.637 1030.39,548.271 1030.39,552.875L1030.39,659.961C1030.39,686.612 1041.54,713.02 1087.33,713.02Z" style="fill:rgb(109,111,113);fill-rule:nonzero;"/>
                    <path d="M1317.49,577.345C1319.43,579.767 1321.61,580.494 1323.79,580.494C1328.15,580.494 1331.54,577.102 1331.54,572.741C1331.54,571.045 1331.06,569.592 1330.09,568.138C1319.91,552.875 1301.26,543.184 1278.24,543.184C1242.87,543.184 1226.64,562.323 1226.64,584.613C1226.64,642.033 1318.22,620.712 1318.22,666.018C1318.22,687.339 1303.2,697.999 1276.54,697.999C1255.22,697.999 1241.17,687.581 1233.42,674.982C1231.97,672.56 1229.54,671.106 1226.64,671.106C1222.27,671.106 1218.88,674.498 1218.88,678.859C1218.88,680.312 1219.13,681.282 1220.09,683.22C1228.33,698.968 1248.93,713.02 1276.54,713.02C1313.86,713.02 1334.69,696.303 1334.69,666.018C1334.69,607.629 1243.11,624.831 1243.11,584.613C1243.11,570.803 1252.8,558.205 1278.24,558.205C1298.59,558.205 1310.22,568.38 1317.49,577.345Z" style="fill:rgb(109,111,113);fill-rule:nonzero;"/>
                    <path d="M285.146,949.725C288.054,949.725 290.719,948.271 292.415,945.121L343.293,850.876L343.293,970.076C343.293,974.437 346.927,978.071 351.288,978.071C355.649,978.071 359.283,974.437 359.283,970.076L359.283,819.137C359.283,814.776 355.649,811.142 351.288,811.142C346.927,811.142 344.989,814.049 344.02,815.745L285.146,925.497L226.515,815.745C225.304,813.323 222.881,811.142 219.247,811.142C214.886,811.142 211.252,814.776 211.252,819.137L211.252,970.076C211.252,974.437 214.886,978.071 219.247,978.071C223.608,978.071 227.242,974.437 227.242,970.076L227.242,850.876L277.878,945.121C279.574,948.513 282.724,949.725 285.146,949.725Z" style="fill:rgb(109,111,113);fill-rule:nonzero;"/>
                    <path d="M438.75,819.38C438.75,815.019 435.116,811.142 430.513,811.142C425.909,811.142 422.275,815.019 422.275,819.38L422.275,969.834C422.275,974.195 425.909,978.071 430.513,978.071C435.116,978.071 438.75,974.195 438.75,969.834L438.75,819.38Z" style="fill:rgb(109,111,113);fill-rule:nonzero;"/>
                    <path d="M607.617,811.142C603.256,811.142 599.622,814.776 599.622,819.137L599.622,943.426L513.856,814.534C512.645,812.838 510.222,811.142 507.315,811.142C502.954,811.142 499.319,814.776 499.319,819.137L499.319,970.076C499.319,974.437 502.954,978.071 507.315,978.071C511.676,978.071 515.31,974.437 515.31,970.076L515.31,846.03L600.591,974.679C602.287,976.86 604.468,978.071 607.375,978.071C611.978,978.071 615.613,974.437 615.613,969.834L615.613,819.137C615.613,814.776 611.978,811.142 607.617,811.142Z" style="fill:rgb(109,111,113);fill-rule:nonzero;"/>
                    <path d="M692.657,819.38C692.657,815.019 689.023,811.142 684.419,811.142C679.816,811.142 676.182,815.019 676.182,819.38L676.182,969.834C676.182,974.195 679.816,978.071 684.419,978.071C689.023,978.071 692.657,974.195 692.657,969.834L692.657,819.38Z" style="fill:rgb(109,111,113);fill-rule:nonzero;"/>
                    <path d="M843.595,843.85C845.534,846.272 847.714,846.999 849.895,846.999C854.256,846.999 857.647,843.607 857.647,839.246C857.647,837.55 857.163,836.097 856.194,834.643C846.018,819.38 827.363,809.688 804.346,809.688C768.974,809.688 752.741,828.828 752.741,851.118C752.741,908.538 844.322,887.217 844.322,932.523C844.322,953.843 829.301,964.504 802.651,964.504C781.33,964.504 767.278,954.086 759.525,941.487C758.072,939.065 755.649,937.611 752.741,937.611C748.38,937.611 744.989,941.003 744.989,945.364C744.989,946.817 745.231,947.787 746.2,949.725C754.437,965.473 775.031,979.525 802.651,979.525C839.961,979.525 860.797,962.808 860.797,932.523C860.797,874.134 769.216,891.336 769.216,851.118C769.216,837.308 778.907,824.71 804.346,824.71C824.698,824.71 836.327,834.885 843.595,843.85Z" style="fill:rgb(109,111,113);fill-rule:nonzero;"/>
                    <path d="M928.392,828.586L928.392,969.834C928.392,974.437 932.027,978.071 936.63,978.071C941.233,978.071 944.867,974.437 944.867,969.834L944.867,828.586L987.993,828.586C992.354,828.586 995.745,825.194 995.745,820.833C995.745,816.472 992.354,813.08 987.993,813.08L885.025,813.08C880.664,813.08 877.272,816.472 877.272,820.833C877.272,825.194 880.664,828.586 885.025,828.586L928.392,828.586Z" style="fill:rgb(109,111,113);fill-rule:nonzero;"/>
                    <path d="M1061.89,828.102L1101.62,828.102C1119.06,828.102 1131.42,841.427 1131.42,859.355C1131.42,876.799 1119.31,890.609 1102.35,890.609L1061.89,890.609L1061.89,828.102ZM1061.89,905.63L1086.36,905.63L1135.54,974.195C1137.48,977.102 1140.14,978.071 1142.57,978.071C1147.17,978.071 1150.8,974.437 1150.8,969.834C1150.8,968.138 1150.32,966.2 1149.11,964.746L1104.77,905.63C1130.94,904.419 1148.14,884.31 1148.14,859.355C1148.14,833.432 1128.76,813.08 1101.86,813.08L1053.65,813.08C1049.05,813.08 1045.41,816.715 1045.41,821.318L1045.41,969.834C1045.41,974.437 1049.05,978.071 1053.65,978.071C1058.25,978.071 1061.89,974.437 1061.89,969.834L1061.89,905.63Z" style="fill:rgb(109,111,113);fill-rule:nonzero;"/>
                    <path d="M1245.29,978.071C1249.89,978.071 1253.53,974.437 1253.53,969.834L1253.53,900.3L1302.23,823.741C1302.95,822.529 1303.44,821.076 1303.44,819.38C1303.44,814.776 1299.8,811.142 1295.2,811.142C1292.29,811.142 1289.63,812.596 1288.17,815.019L1245.29,883.825L1202.41,815.019C1200.95,812.596 1198.29,811.142 1195.38,811.142C1190.78,811.142 1187.14,814.776 1187.14,819.38C1187.14,821.076 1187.63,822.529 1188.36,823.741L1237.05,900.3L1237.05,969.834C1237.05,974.437 1240.69,978.071 1245.29,978.071Z" style="fill:rgb(109,111,113);fill-rule:nonzero;"/>
                </g>
                <g>
                    <path d="M212.497,469.786L209.084,469.295L205.948,467.863L203.342,465.605L201.478,462.704L200.507,459.396L200.507,455.948L201.478,452.64L203.342,449.739L205.948,447.481L209.084,446.049L212.497,445.558L699.062,445.558L702.475,446.049L705.612,447.481L708.218,449.739L710.082,452.64L711.053,455.948L711.053,459.396L710.082,462.704L708.218,465.605L705.612,467.863L702.475,469.295L699.062,469.786L212.497,469.786Z" style="fill:rgb(88,89,91);"/>
                </g>
            </g>
        </g>
    </g>
</svg>
