<?xml version="1.0" standalone="no"?>
<!DOCTYPE svg PUBLIC "-//W3C//DTD SVG 1.1//EN" "http://www.w3.org/Graphics/SVG/1.1/DTD/svg11.dtd">
<svg width="560px" height="375px" version="1.1" xmlns="http://www.w3.org/2000/svg" xmlns:xlink="http://www.w3.org/1999/xlink" xml:space="preserve" style="fill-rule:evenodd;clip-rule:evenodd;stroke-linejoin:round;stroke-miterlimit:1.41421;">
    <g>
        <g id="Layer1">
            <g>
                <path d="M57.9915,338.363L57.9915,36.6365L502.009,36.6365L502.009,338.363L57.9915,338.363ZM65.077,331.278L494.923,331.278L494.923,43.722L65.077,43.722L65.077,331.278Z" style="fill:rgb(128,130,133);"/>
            </g>
            <g>
                <path d="M123.053,81.4655L123.053,122.774C123.053,124.12 124.116,125.183 125.462,125.183C126.808,125.183 127.871,124.12 127.871,122.774L127.871,81.4655L140.483,81.4655C141.759,81.4655 142.751,80.4735 142.751,79.1982C142.751,77.9228 141.759,76.9308 140.483,76.9308L110.37,76.9308C109.095,76.9308 108.103,77.9228 108.103,79.1982C108.103,80.4735 109.095,81.4655 110.37,81.4655L123.053,81.4655Z" style="fill:rgb(65,64,66);fill-rule:nonzero;"/>
                <path d="M192.986,102.368L192.986,122.774C192.986,124.049 194.049,125.183 195.395,125.183C196.742,125.183 197.805,124.049 197.805,122.774L197.805,78.773C197.805,77.4976 196.742,76.364 195.395,76.364C194.049,76.364 192.986,77.4976 192.986,78.773L192.986,97.9746L168.329,97.9746L168.329,78.773C168.329,77.4976 167.266,76.364 165.92,76.364C164.574,76.364 163.511,77.4976 163.511,78.773L163.511,122.774C163.511,124.049 164.574,125.183 165.92,125.183C167.266,125.183 168.329,124.049 168.329,122.774L168.329,102.368L192.986,102.368Z" style="fill:rgb(65,64,66);fill-rule:nonzero;"/>
                <path d="M248.395,124.616C249.599,124.616 250.591,123.624 250.591,122.419C250.591,121.215 249.599,120.223 248.395,120.223L227.28,120.223L227.28,102.793L242.868,102.793C244.073,102.793 245.064,101.801 245.064,100.596C245.064,99.3917 244.073,98.3997 242.868,98.3997L227.28,98.3997L227.28,81.3238L247.615,81.3238C248.82,81.3238 249.812,80.3318 249.812,79.1273C249.812,77.9228 248.82,76.9308 247.615,76.9308L224.871,76.9308C223.525,76.9308 222.462,77.9936 222.462,79.3399L222.462,122.207C222.462,123.553 223.525,124.616 224.871,124.616L248.395,124.616Z" style="fill:rgb(65,64,66);fill-rule:nonzero;"/>
                <path d="M130.209,220.553C136.728,220.553 143.105,217.577 146.222,213.042C146.506,212.617 146.648,212.263 146.648,211.696C146.648,210.421 145.656,209.429 144.38,209.429C143.813,209.429 143.034,209.641 142.538,210.35C139.775,214.318 134.886,216.16 130.209,216.16C119.298,216.16 113.062,210.492 113.062,195.754C113.062,181.866 119.298,175.277 130.209,175.277C135.523,175.277 140.129,177.899 142.538,181.229C143.105,181.937 143.742,182.15 144.38,182.15C145.656,182.15 146.648,181.158 146.648,179.882C146.648,179.386 146.506,178.89 146.152,178.394C142.821,173.789 136.94,170.884 130.209,170.884C116.464,170.884 108.103,178.961 108.103,195.754C108.103,213.184 116.464,220.553 130.209,220.553Z" style="fill:rgb(109,111,113);fill-rule:nonzero;"/>
                <path d="M193.837,201.068L177.044,201.068L185.405,179.386L193.837,201.068ZM195.325,205.461L200.426,218.498C200.78,219.419 201.56,220.128 202.764,220.128C204.252,220.128 205.244,218.994 205.244,217.719C205.244,217.506 205.173,217.01 205.032,216.656L187.743,172.939C187.389,172.088 186.609,171.309 185.405,171.309C184.13,171.309 183.492,172.088 183.138,172.939L165.849,216.656C165.707,216.939 165.637,217.435 165.637,217.719C165.637,218.994 166.699,220.128 168.046,220.128C169.25,220.128 170.03,219.348 170.384,218.427L175.556,205.461L195.325,205.461Z" style="fill:rgb(109,111,113);fill-rule:nonzero;"/>
                <path d="M247.757,211.838C248.607,211.838 249.387,211.413 249.883,210.492L264.762,182.929L264.762,217.79C264.762,219.065 265.825,220.128 267.1,220.128C268.376,220.128 269.438,219.065 269.438,217.79L269.438,173.647C269.438,172.372 268.376,171.309 267.1,171.309C265.825,171.309 265.258,172.159 264.975,172.655L247.757,204.752L230.61,172.655C230.256,171.947 229.547,171.309 228.485,171.309C227.209,171.309 226.146,172.372 226.146,173.647L226.146,217.79C226.146,219.065 227.209,220.128 228.485,220.128C229.76,220.128 230.823,219.065 230.823,217.79L230.823,182.929L245.631,210.492C246.127,211.484 247.048,211.838 247.757,211.838Z" style="fill:rgb(109,111,113);fill-rule:nonzero;"/>
                <path d="M299.622,176.269L310.605,176.269C316.273,176.269 319.958,179.457 319.958,185.693C319.958,191.857 316.344,195.187 310.605,195.187L299.622,195.187L299.622,176.269ZM299.622,199.58L311.313,199.58C319.037,199.58 324.847,194.974 324.847,185.693C324.847,176.269 318.895,171.876 311.313,171.876L297.213,171.876C295.867,171.876 294.804,172.939 294.804,174.285L294.804,217.719C294.804,219.065 295.867,220.128 297.213,220.128C298.56,220.128 299.622,219.065 299.622,217.719L299.622,199.58Z" style="fill:rgb(109,111,113);fill-rule:nonzero;"/>
                <path d="M364.029,220.553C377.421,220.553 380.609,212.83 380.609,205.036L380.609,173.718C380.609,172.372 379.546,171.309 378.2,171.309C376.854,171.309 375.791,172.372 375.791,173.718L375.791,205.036C375.791,210.633 373.736,216.018 364.029,216.018C354.251,216.018 352.197,210.633 352.197,205.036L352.197,173.718C352.197,172.372 351.134,171.309 349.787,171.309C348.441,171.309 347.378,172.372 347.378,173.718L347.378,205.036C347.378,212.83 350.638,220.553 364.029,220.553Z" style="fill:rgb(109,111,113);fill-rule:nonzero;"/>
                <path d="M431.341,180.874C431.908,181.583 432.546,181.796 433.183,181.796C434.459,181.796 435.451,180.804 435.451,179.528C435.451,179.032 435.309,178.607 435.025,178.182C432.05,173.718 426.594,170.884 419.863,170.884C409.518,170.884 404.771,176.481 404.771,183C404.771,199.793 431.554,193.557 431.554,206.807C431.554,213.042 427.161,216.16 419.367,216.16C413.131,216.16 409.022,213.113 406.754,209.429C406.329,208.72 405.621,208.295 404.771,208.295C403.495,208.295 402.503,209.287 402.503,210.562C402.503,210.988 402.574,211.271 402.857,211.838C405.267,216.443 411.289,220.553 419.367,220.553C430.278,220.553 436.372,215.664 436.372,206.807C436.372,189.731 409.589,194.762 409.589,183C409.589,178.961 412.423,175.277 419.863,175.277C425.814,175.277 429.215,178.253 431.341,180.874Z" style="fill:rgb(109,111,113);fill-rule:nonzero;"/>
                <path d="M129.43,289.778C130.28,289.778 131.06,289.353 131.556,288.432L146.435,260.869L146.435,295.73C146.435,297.005 147.498,298.068 148.773,298.068C150.049,298.068 151.111,297.005 151.111,295.73L151.111,251.587C151.111,250.312 150.049,249.249 148.773,249.249C147.498,249.249 146.931,250.099 146.648,250.595L129.43,282.692L112.283,250.595C111.929,249.887 111.22,249.249 110.157,249.249C108.882,249.249 107.819,250.312 107.819,251.587L107.819,295.73C107.819,297.005 108.882,298.068 110.157,298.068C111.433,298.068 112.496,297.005 112.496,295.73L112.496,260.869L127.304,288.432C127.8,289.424 128.721,289.778 129.43,289.778Z" style="fill:rgb(109,111,113);fill-rule:nonzero;"/>
                <path d="M174.352,251.658C174.352,250.383 173.289,249.249 171.943,249.249C170.596,249.249 169.534,250.383 169.534,251.658L169.534,295.659C169.534,296.934 170.596,298.068 171.943,298.068C173.289,298.068 174.352,296.934 174.352,295.659L174.352,251.658Z" style="fill:rgb(109,111,113);fill-rule:nonzero;"/>
                <path d="M223.737,249.249C222.462,249.249 221.399,250.312 221.399,251.587L221.399,287.936L196.317,250.241C195.962,249.745 195.254,249.249 194.403,249.249C193.128,249.249 192.065,250.312 192.065,251.587L192.065,295.73C192.065,297.005 193.128,298.068 194.403,298.068C195.679,298.068 196.742,297.005 196.742,295.73L196.742,259.452L221.682,297.076C222.178,297.714 222.816,298.068 223.666,298.068C225.013,298.068 226.075,297.005 226.075,295.659L226.075,251.587C226.075,250.312 225.013,249.249 223.737,249.249Z" style="fill:rgb(109,111,113);fill-rule:nonzero;"/>
                <path d="M248.607,251.658C248.607,250.383 247.544,249.249 246.198,249.249C244.852,249.249 243.789,250.383 243.789,251.658L243.789,295.659C243.789,296.934 244.852,298.068 246.198,298.068C247.544,298.068 248.607,296.934 248.607,295.659L248.607,251.658Z" style="fill:rgb(109,111,113);fill-rule:nonzero;"/>
                <path d="M292.75,258.814C293.316,259.523 293.954,259.735 294.592,259.735C295.867,259.735 296.859,258.744 296.859,257.468C296.859,256.972 296.717,256.547 296.434,256.122C293.458,251.658 288.002,248.824 281.271,248.824C270.926,248.824 266.179,254.421 266.179,260.94C266.179,277.733 292.962,271.497 292.962,284.747C292.962,290.982 288.569,294.1 280.775,294.1C274.54,294.1 270.43,291.053 268.163,287.369C267.738,286.66 267.029,286.235 266.179,286.235C264.904,286.235 263.912,287.227 263.912,288.502C263.912,288.928 263.983,289.211 264.266,289.778C266.675,294.383 272.698,298.493 280.775,298.493C291.687,298.493 297.78,293.604 297.78,284.747C297.78,267.671 270.997,272.702 270.997,260.94C270.997,256.901 273.831,253.217 281.271,253.217C287.223,253.217 290.624,256.193 292.75,258.814Z" style="fill:rgb(109,111,113);fill-rule:nonzero;"/>
                <path d="M317.549,254.351L317.549,295.659C317.549,297.005 318.611,298.068 319.958,298.068C321.304,298.068 322.367,297.005 322.367,295.659L322.367,254.351L334.979,254.351C336.254,254.351 337.246,253.359 337.246,252.083C337.246,250.808 336.254,249.816 334.979,249.816L304.866,249.816C303.59,249.816 302.598,250.808 302.598,252.083C302.598,253.359 303.59,254.351 304.866,254.351L317.549,254.351Z" style="fill:rgb(109,111,113);fill-rule:nonzero;"/>
                <path d="M356.589,254.209L368.21,254.209C373.311,254.209 376.925,258.106 376.925,263.349C376.925,268.451 373.382,272.489 368.422,272.489L356.589,272.489L356.589,254.209ZM356.589,276.882L363.746,276.882L378.129,296.934C378.696,297.784 379.476,298.068 380.184,298.068C381.53,298.068 382.593,297.005 382.593,295.659C382.593,295.163 382.451,294.596 382.097,294.171L369.131,276.882C376.783,276.528 381.814,270.647 381.814,263.349C381.814,255.768 376.145,249.816 368.28,249.816L354.18,249.816C352.834,249.816 351.771,250.879 351.771,252.225L351.771,295.659C351.771,297.005 352.834,298.068 354.18,298.068C355.527,298.068 356.589,297.005 356.589,295.659L356.589,276.882Z" style="fill:rgb(109,111,113);fill-rule:nonzero;"/>
                <path d="M410.226,298.068C411.573,298.068 412.635,297.005 412.635,295.659L412.635,275.323L426.877,252.933C427.09,252.579 427.231,252.154 427.231,251.658C427.231,250.312 426.169,249.249 424.822,249.249C423.972,249.249 423.193,249.674 422.768,250.383L410.226,270.505L397.685,250.383C397.26,249.674 396.481,249.249 395.63,249.249C394.284,249.249 393.221,250.312 393.221,251.658C393.221,252.154 393.363,252.579 393.576,252.933L407.817,275.323L407.817,295.659C407.817,297.005 408.88,298.068 410.226,298.068Z" style="fill:rgb(109,111,113);fill-rule:nonzero;"/>
            </g>
            <g>
                <rect x="108.183" y="142.333" width="142.297" height="7.08545" style="fill:rgb(88,89,91);"/>
            </g>
        </g>
    </g>
</svg>
