<?xml version="1.0" standalone="no"?>
<!DOCTYPE svg PUBLIC "-//W3C//DTD SVG 1.1//EN" "http://www.w3.org/Graphics/SVG/1.1/DTD/svg11.dtd">
<svg width="595px" height="841px" version="1.1" xmlns="http://www.w3.org/2000/svg" xmlns:xlink="http://www.w3.org/1999/xlink" xml:space="preserve" style="fill-rule:evenodd;clip-rule:evenodd;stroke-miterlimit:10;">
    <g>
        <g id="Layer 1">
            <rect x="267.257" y="399.833" width="61.666" height="41.584" style="fill:white;fill-rule:nonzero;stroke-width:1px;stroke:rgb(128,130,133);"/>
            <g>
                <path d="M275.939,405.66L275.939,411.49C275.939,411.68 276.089,411.83 276.279,411.83C276.469,411.83 276.619,411.68 276.619,411.49L276.619,405.66L278.399,405.66C278.579,405.66 278.719,405.52 278.719,405.34C278.719,405.16 278.579,405.02 278.399,405.02L274.149,405.02C273.969,405.02 273.829,405.16 273.829,405.34C273.829,405.52 273.969,405.66 274.149,405.66L275.939,405.66Z" style="fill:rgb(65,64,66);fill-rule:nonzero;"/>
                <path d="M285.809,408.61L285.809,411.49C285.809,411.67 285.959,411.83 286.149,411.83C286.339,411.83 286.489,411.67 286.489,411.49L286.489,405.28C286.489,405.1 286.339,404.94 286.149,404.94C285.959,404.94 285.809,405.1 285.809,405.28L285.809,407.99L282.329,407.99L282.329,405.28C282.329,405.1 282.179,404.94 281.989,404.94C281.799,404.94 281.649,405.1 281.649,405.28L281.649,411.49C281.649,411.67 281.799,411.83 281.989,411.83C282.179,411.83 282.329,411.67 282.329,411.49L282.329,408.61L285.809,408.61Z" style="fill:rgb(65,64,66);fill-rule:nonzero;"/>
                <path d="M293.629,411.75C293.799,411.75 293.939,411.61 293.939,411.44C293.939,411.27 293.799,411.13 293.629,411.13L290.649,411.13L290.649,408.67L292.849,408.67C293.019,408.67 293.159,408.53 293.159,408.36C293.159,408.19 293.019,408.05 292.849,408.05L290.649,408.05L290.649,405.64L293.519,405.64C293.689,405.64 293.829,405.5 293.829,405.33C293.829,405.16 293.689,405.02 293.519,405.02L290.309,405.02C290.119,405.02 289.969,405.17 289.969,405.36L289.969,411.41C289.969,411.6 290.119,411.75 290.309,411.75L293.629,411.75Z" style="fill:rgb(65,64,66);fill-rule:nonzero;"/>
                <path d="M276.949,425.29C277.869,425.29 278.769,424.87 279.209,424.23C279.249,424.17 279.269,424.12 279.269,424.04C279.269,423.86 279.129,423.72 278.949,423.72C278.869,423.72 278.759,423.75 278.689,423.85C278.299,424.41 277.609,424.67 276.949,424.67C275.409,424.67 274.529,423.87 274.529,421.79C274.529,419.83 275.409,418.9 276.949,418.9C277.699,418.9 278.349,419.27 278.689,419.74C278.769,419.84 278.859,419.87 278.949,419.87C279.129,419.87 279.269,419.73 279.269,419.55C279.269,419.48 279.249,419.41 279.199,419.34C278.729,418.69 277.899,418.28 276.949,418.28C275.009,418.28 273.829,419.42 273.829,421.79C273.829,424.25 275.009,425.29 276.949,425.29Z" style="fill:rgb(109,111,113);fill-rule:nonzero;"/>
                <path d="M285.929,422.54L283.559,422.54L284.739,419.48L285.929,422.54ZM286.139,423.16L286.859,425C286.909,425.13 287.019,425.23 287.189,425.23C287.399,425.23 287.539,425.07 287.539,424.89C287.539,424.86 287.529,424.79 287.509,424.74L285.069,418.57C285.019,418.45 284.909,418.34 284.739,418.34C284.559,418.34 284.469,418.45 284.419,418.57L281.979,424.74C281.959,424.78 281.949,424.85 281.949,424.89C281.949,425.07 282.099,425.23 282.289,425.23C282.459,425.23 282.569,425.12 282.619,424.99L283.349,423.16L286.139,423.16Z" style="fill:rgb(109,111,113);fill-rule:nonzero;"/>
                <path d="M293.539,424.06C293.659,424.06 293.769,424 293.839,423.87L295.939,419.98L295.939,424.9C295.939,425.08 296.089,425.23 296.269,425.23C296.449,425.23 296.599,425.08 296.599,424.9L296.599,418.67C296.599,418.49 296.449,418.34 296.269,418.34C296.089,418.34 296.009,418.46 295.969,418.53L293.539,423.06L291.119,418.53C291.069,418.43 290.969,418.34 290.819,418.34C290.639,418.34 290.489,418.49 290.489,418.67L290.489,424.9C290.489,425.08 290.639,425.23 290.819,425.23C290.999,425.23 291.149,425.08 291.149,424.9L291.149,419.98L293.239,423.87C293.309,424.01 293.439,424.06 293.539,424.06Z" style="fill:rgb(109,111,113);fill-rule:nonzero;"/>
                <path d="M300.859,419.04L302.409,419.04C303.209,419.04 303.729,419.49 303.729,420.37C303.729,421.24 303.219,421.71 302.409,421.71L300.859,421.71L300.859,419.04ZM300.859,422.33L302.509,422.33C303.599,422.33 304.419,421.68 304.419,420.37C304.419,419.04 303.579,418.42 302.509,418.42L300.519,418.42C300.329,418.42 300.179,418.57 300.179,418.76L300.179,424.89C300.179,425.08 300.329,425.23 300.519,425.23C300.709,425.23 300.859,425.08 300.859,424.89L300.859,422.33Z" style="fill:rgb(109,111,113);fill-rule:nonzero;"/>
                <path d="M309.949,425.29C311.839,425.29 312.289,424.2 312.289,423.1L312.289,418.68C312.289,418.49 312.139,418.34 311.949,418.34C311.759,418.34 311.609,418.49 311.609,418.68L311.609,423.1C311.609,423.89 311.319,424.65 309.949,424.65C308.569,424.65 308.279,423.89 308.279,423.1L308.279,418.68C308.279,418.49 308.129,418.34 307.939,418.34C307.749,418.34 307.599,418.49 307.599,418.68L307.599,423.1C307.599,424.2 308.059,425.29 309.949,425.29Z" style="fill:rgb(109,111,113);fill-rule:nonzero;"/>
                <path d="M319.449,419.69C319.529,419.79 319.619,419.82 319.709,419.82C319.889,419.82 320.029,419.68 320.029,419.5C320.029,419.43 320.009,419.37 319.969,419.31C319.549,418.68 318.779,418.28 317.829,418.28C316.369,418.28 315.699,419.07 315.699,419.99C315.699,422.36 319.479,421.48 319.479,423.35C319.479,424.23 318.859,424.67 317.759,424.67C316.879,424.67 316.299,424.24 315.979,423.72C315.919,423.62 315.819,423.56 315.699,423.56C315.519,423.56 315.379,423.7 315.379,423.88C315.379,423.94 315.389,423.98 315.429,424.06C315.769,424.71 316.619,425.29 317.759,425.29C319.299,425.29 320.159,424.6 320.159,423.35C320.159,420.94 316.379,421.65 316.379,419.99C316.379,419.42 316.779,418.9 317.829,418.9C318.669,418.9 319.149,419.32 319.449,419.69Z" style="fill:rgb(109,111,113);fill-rule:nonzero;"/>
                <path d="M276.839,435.06C276.959,435.06 277.069,435 277.139,434.87L279.239,430.98L279.239,435.9C279.239,436.08 279.389,436.23 279.569,436.23C279.749,436.23 279.899,436.08 279.899,435.9L279.899,429.67C279.899,429.49 279.749,429.34 279.569,429.34C279.389,429.34 279.309,429.46 279.269,429.53L276.839,434.06L274.419,429.53C274.369,429.43 274.269,429.34 274.119,429.34C273.939,429.34 273.789,429.49 273.789,429.67L273.789,435.9C273.789,436.08 273.939,436.23 274.119,436.23C274.299,436.23 274.449,436.08 274.449,435.9L274.449,430.98L276.539,434.87C276.609,435.01 276.739,435.06 276.839,435.06Z" style="fill:rgb(109,111,113);fill-rule:nonzero;"/>
                <path d="M283.179,429.68C283.179,429.5 283.029,429.34 282.839,429.34C282.649,429.34 282.499,429.5 282.499,429.68L282.499,435.89C282.499,436.07 282.649,436.23 282.839,436.23C283.029,436.23 283.179,436.07 283.179,435.89L283.179,429.68Z" style="fill:rgb(109,111,113);fill-rule:nonzero;"/>
                <path d="M290.149,429.34C289.969,429.34 289.819,429.49 289.819,429.67L289.819,434.8L286.279,429.48C286.229,429.41 286.129,429.34 286.009,429.34C285.829,429.34 285.679,429.49 285.679,429.67L285.679,435.9C285.679,436.08 285.829,436.23 286.009,436.23C286.189,436.23 286.339,436.08 286.339,435.9L286.339,430.78L289.859,436.09C289.929,436.18 290.019,436.23 290.139,436.23C290.329,436.23 290.479,436.08 290.479,435.89L290.479,429.67C290.479,429.49 290.329,429.34 290.149,429.34Z" style="fill:rgb(109,111,113);fill-rule:nonzero;"/>
                <path d="M293.659,429.68C293.659,429.5 293.509,429.34 293.319,429.34C293.129,429.34 292.979,429.5 292.979,429.68L292.979,435.89C292.979,436.07 293.129,436.23 293.319,436.23C293.509,436.23 293.659,436.07 293.659,435.89L293.659,429.68Z" style="fill:rgb(109,111,113);fill-rule:nonzero;"/>
                <path d="M299.889,430.69C299.969,430.79 300.059,430.82 300.149,430.82C300.329,430.82 300.469,430.68 300.469,430.5C300.469,430.43 300.449,430.37 300.409,430.31C299.989,429.68 299.219,429.28 298.269,429.28C296.809,429.28 296.139,430.07 296.139,430.99C296.139,433.36 299.919,432.48 299.919,434.35C299.919,435.23 299.299,435.67 298.199,435.67C297.319,435.67 296.739,435.24 296.419,434.72C296.359,434.62 296.259,434.56 296.139,434.56C295.959,434.56 295.819,434.7 295.819,434.88C295.819,434.94 295.829,434.98 295.869,435.06C296.209,435.71 297.059,436.29 298.199,436.29C299.739,436.29 300.599,435.6 300.599,434.35C300.599,431.94 296.819,432.65 296.819,430.99C296.819,430.42 297.219,429.9 298.269,429.9C299.109,429.9 299.589,430.32 299.889,430.69Z" style="fill:rgb(109,111,113);fill-rule:nonzero;"/>
                <path d="M303.389,430.06L303.389,435.89C303.389,436.08 303.539,436.23 303.729,436.23C303.919,436.23 304.069,436.08 304.069,435.89L304.069,430.06L305.849,430.06C306.029,430.06 306.169,429.92 306.169,429.74C306.169,429.56 306.029,429.42 305.849,429.42L301.599,429.42C301.419,429.42 301.279,429.56 301.279,429.74C301.279,429.92 301.419,430.06 301.599,430.06L303.389,430.06Z" style="fill:rgb(109,111,113);fill-rule:nonzero;"/>
                <path d="M308.899,430.04L310.539,430.04C311.259,430.04 311.769,430.59 311.769,431.33C311.769,432.05 311.269,432.62 310.569,432.62L308.899,432.62L308.899,430.04ZM308.899,433.24L309.909,433.24L311.939,436.07C312.019,436.19 312.129,436.23 312.229,436.23C312.419,436.23 312.569,436.08 312.569,435.89C312.569,435.82 312.549,435.74 312.499,435.68L310.669,433.24C311.749,433.19 312.459,432.36 312.459,431.33C312.459,430.26 311.659,429.42 310.549,429.42L308.559,429.42C308.369,429.42 308.219,429.57 308.219,429.76L308.219,435.89C308.219,436.08 308.369,436.23 308.559,436.23C308.749,436.23 308.899,436.08 308.899,435.89L308.899,433.24Z" style="fill:rgb(109,111,113);fill-rule:nonzero;"/>
                <path d="M316.469,436.23C316.659,436.23 316.809,436.08 316.809,435.89L316.809,433.02L318.819,429.86C318.849,429.81 318.869,429.75 318.869,429.68C318.869,429.49 318.719,429.34 318.529,429.34C318.409,429.34 318.299,429.4 318.239,429.5L316.469,432.34L314.699,429.5C314.639,429.4 314.529,429.34 314.409,429.34C314.219,429.34 314.069,429.49 314.069,429.68C314.069,429.75 314.089,429.81 314.119,429.86L316.129,433.02L316.129,435.89C316.129,436.08 316.279,436.23 316.469,436.23Z" style="fill:rgb(109,111,113);fill-rule:nonzero;"/>
            </g>
            <path d="M273.841,414.75L293.924,414.75" style="fill:none;stroke-width:1px;stroke:rgb(88,89,91);"/>
        </g>
    </g>
</svg>
